# xmcd
#
# Track frame offsets:
#	150
#	15242
#	30354
#	45262
#	61756
#	78048
#	92405
#	106027
#	131368
#	147052
#	164695
#	184162
#	206889
#	222076
#	243448
#	258399
#	272318
#	288015
#	300880
#	317856
#	331425
#
# Disc length: 4620 seconds
#
# Revision: 0
# Processed by: cddbd v1.5.2PL0 Copyright (c) Steve Scherf et al.
# Submitted via: EasyCDDAExtractor 16.0.9.1
#
DISCID=05120a15
DTITLE=Various Artist - Super Dance Vol.47
DYEAR=2005
DGENRE=Dance
TTITLE0=Lasgo - Deep In Your Heart
TTITLE1=Sylver - Take Me Back
TTITLE2=Global Deejays - American Pie
TTITLE3=Jet Set - In The Name Of Love
TTITLE4=Scooter - Suavemente
TTITLE5=Spring Break - Shut Up
TTITLE6=DJ Umbo - Eyahe (English Version)
TTITLE7=DJ Aligator - Protect Your Ears
TTITLE8=Martillo Vago - Que Es La Vida
TTITLE9=Niels Van Gogh - Don't Be Afraid Of Tomorrow
TTITLE10=Arash - Boro Boro (Funky Sunday Remix)
TTITLE11=Vanguarde - Mamma Mia (Extended Mix)
TTITLE12=Beat Factory feat. Massive 4 - Sugar, Sugar
TTITLE13=Benassi Bros. - Every Single Day
TTITLE14=Scale - Fight (Tune Up! Radio Edit)
TTITLE15=Ch!pz - 1001 Arabian Night
TTITLE16=Magic D. feat. The 2 Jays - Some Day (Alex Megane Edit)
TTITLE17=Stellar Project feat. Brandy E. - Get Up Stand Up
TTITLE18=Magic D. feat. Upsynth - Till We Meet Again (S.A.D. Radio Edit)
TTITLE19=PSL - MF Chicken Dance
TTITLE20=Crystal - In The End
EXTD=
EXTT0=
EXTT1=
EXTT2=
EXTT3=
EXTT4=
EXTT5=
EXTT6=
EXTT7=
EXTT8=
EXTT9=
EXTT10=
EXTT11=
EXTT12=
EXTT13=
EXTT14=
EXTT15=
EXTT16=
EXTT17=
EXTT18=
EXTT19=
EXTT20=
PLAYORDER=
